<svg width="4025" height="4026" viewBox="0 0 4025 4026" fill="none" xmlns="http://www.w3.org/2000/svg">
    <circle cx="2012.5" cy="2013" r="2012.5" fill="#FF8E26"/>
    <circle cx="2013" cy="2012.5" r="1825.5" stroke="#E8DDB6" stroke-width="181"/>
    <path d="M1593.85 2101.9L1037.69 2461.87C1010.4 2461.87 987.652 2450.5 969.454 2427.75C964.905 2422.06 961.493 2416.38 959.218 2410.69L1428.37 2117.26L979.69 1823.83V1806.77C997.888 1784.02 1026.89 1761.27 1066.7 1738.53L1587.03 2076.31L1593.85 2101.9ZM2079.91 2579.58C2079.91 2605.74 2074.23 2630.2 2062.85 2652.94C1966.18 2644.98 1896.8 2641 1854.72 2641L1692.65 2652.94C1692.65 2626.78 1698.34 2602.33 1709.71 2579.58C1755.21 2567.07 1793.87 2546.6 1825.72 2518.17C1876.9 2162.18 1914.43 1847.71 1938.32 1574.75L1796.72 1542.34C1796.72 1516.18 1802.4 1491.72 1813.78 1468.98C1883.16 1476.94 1940.02 1480.92 1984.38 1480.92H2131.09C2230.04 1874.44 2318.19 2182.09 2395.52 2403.87C2487.65 2207.11 2616.17 1899.46 2781.08 1480.92H2936.33L3115.46 1468.98C3115.46 1495.14 3109.77 1519.59 3098.4 1542.34C3047.22 1551.43 3005.13 1568.49 2972.15 1593.52C2942.58 1906.28 2924.95 2225.87 2919.27 2552.29L3064.28 2579.58C3064.28 2605.74 3058.59 2630.2 3047.22 2652.94C2952.82 2644.98 2885.15 2641 2844.2 2641C2781.65 2641 2723.08 2644.41 2668.48 2651.24L2646.31 2652.94C2646.31 2626.78 2651.99 2602.33 2663.37 2579.58C2705.45 2567.07 2742.41 2547.74 2774.26 2521.58C2797 2306.62 2815.2 2017.74 2828.85 1654.93C2667.35 2006.37 2530.3 2335.06 2417.7 2641L2393.82 2658.06L2293.16 2641C2205.59 2282.74 2119.15 1962.58 2033.85 1680.52C1989.5 1992.15 1957.65 2281.03 1938.32 2547.17L2079.91 2579.58Z" fill="#411910"/>
</svg>
